# Blender v2.83.0 OBJ File: 'Platform-shattered.blend'
# www.blender.org
mtllib Block.mtl
o Cube.002
v 0.773141 0.445727 -0.492087
v 0.492087 0.445727 -0.773141
v 0.571432 0.998079 -0.571532
v 0.492087 0.865049 -0.495916
v 0.572846 -0.998079 -0.570444
v 0.915625 0.998079 -0.571532
v 0.571513 0.998079 -0.915625
v 0.915252 -0.998079 -0.915625
v 0.915232 -0.915625 -0.998079
v 0.997719 -0.915625 -0.915625
v 0.915612 0.915625 -0.998079
v 0.915635 0.998079 -0.915625
v 0.998064 0.915625 -0.915625
v 0.997920 0.316942 -0.915625
v 0.915428 0.316942 -0.998079
v 0.572764 -0.915625 -0.998079
v 0.572846 -0.998079 -0.915625
v 0.915393 -0.998079 -0.570444
v 0.997861 -0.915625 -0.570513
v 0.998068 0.281768 -0.606707
v 0.966343 0.335112 -0.560324
v 0.560324 0.335112 -0.966343
v 0.606707 0.281768 -0.998079
v 0.966288 0.908623 -0.560304
v 0.998078 0.915625 -0.606707
v 0.973207 0.940497 -0.571532
v 0.606707 0.915625 -0.998079
v 0.560304 0.908623 -0.966288
v 0.571527 0.940497 -0.973207
v 0.720120 0.865889 -0.492809
v 0.773141 0.813063 -0.492087
v 0.492087 0.813064 -0.773141
v 0.492087 0.865887 -0.720120
v -0.773141 0.445727 -0.492087
v -0.492087 0.445727 -0.773141
v -0.571432 0.998079 -0.571532
v -0.492087 0.865049 -0.495916
v -0.572847 -0.998079 -0.570444
v 0.000000 0.866085 -0.492087
v 0.000000 0.445727 -0.773141
v -0.000000 -0.998079 -0.570444
v -0.915625 0.998079 -0.571532
v -0.571513 0.998079 -0.915625
v -0.915253 -0.998079 -0.915625
v -0.915232 -0.915625 -0.998079
v -0.997720 -0.915625 -0.915625
v -0.915612 0.915625 -0.998079
v -0.915635 0.998079 -0.915625
v -0.998063 0.915625 -0.915625
v -0.997920 0.316943 -0.915625
v -0.915428 0.316943 -0.998079
v -0.572765 -0.915625 -0.998079
v -0.572847 -0.998079 -0.915625
v -0.915393 -0.998079 -0.570444
v -0.997862 -0.915625 -0.570513
v -0.000000 -0.998079 -0.915625
v -0.000000 -0.915625 -0.998079
v -0.998068 0.281769 -0.606707
v -0.966343 0.335113 -0.560324
v -0.560323 0.335113 -0.966343
v -0.606706 0.281768 -0.998079
v 0.000000 0.281768 -0.998079
v 0.000000 0.335086 -0.966389
v -0.966287 0.908624 -0.560304
v -0.998077 0.915625 -0.606707
v -0.973207 0.940497 -0.571532
v -0.606706 0.915625 -0.998079
v -0.560304 0.908624 -0.966288
v -0.571526 0.940497 -0.973207
v -0.720119 0.865890 -0.492809
v -0.773140 0.813064 -0.492087
v -0.492087 0.813064 -0.773141
v -0.492087 0.865887 -0.720120
v 0.000000 0.813064 -0.773141
v 0.000000 0.866085 -0.720119
v 0.773141 0.445727 0.492087
v 0.492087 0.445727 0.773141
v 0.571432 0.998079 0.571532
v 0.492087 0.865049 0.495916
v 0.572846 -0.998079 0.570444
v 0.773141 0.445727 0.000000
v 0.572846 -0.998079 0.000000
v 0.491579 0.866085 0.000000
v 0.915625 0.998079 0.571532
v 0.571513 0.998079 0.915625
v 0.915252 -0.998079 0.915625
v 0.915232 -0.915625 0.998079
v 0.997719 -0.915625 0.915625
v 0.915612 0.915625 0.998079
v 0.915635 0.998079 0.915625
v 0.998064 0.915625 0.915625
v 0.997920 0.316942 0.915625
v 0.915428 0.316942 0.998079
v 0.572764 -0.915625 0.998079
v 0.572846 -0.998079 0.915625
v 0.915393 -0.998079 0.570444
v 0.997861 -0.915625 0.570513
v 0.998079 -0.915625 0.000000
v 0.915625 -0.998079 0.000000
v 0.998068 0.281768 0.606707
v 0.966343 0.335112 0.560324
v 0.560324 0.335112 0.966343
v 0.606707 0.281768 0.998079
v 0.966389 0.335085 0.000000
v 0.998079 0.281768 0.000000
v 0.966288 0.908623 0.560304
v 0.998078 0.915625 0.606707
v 0.973207 0.940497 0.571532
v 0.606707 0.915625 0.998079
v 0.560304 0.908623 0.966288
v 0.571527 0.940497 0.973207
v 0.720120 0.865889 0.492809
v 0.773141 0.813063 0.492087
v 0.492087 0.813064 0.773141
v 0.492087 0.865887 0.720120
v 0.720119 0.866085 0.000000
v 0.773141 0.813063 0.000000
v -0.773141 0.445727 0.492087
v -0.492087 0.445727 0.773141
v -0.571432 0.998079 0.571532
v -0.492087 0.865049 0.495916
v -0.572847 -0.998079 0.570444
v 0.000000 0.866085 0.492087
v 0.000000 0.445727 0.773141
v -0.000000 -0.998079 0.570444
v -0.773141 0.445727 0.000000
v -0.572847 -0.998079 0.000000
v -0.491579 0.866085 0.000000
v -0.000000 -0.998079 0.000000
v 0.000000 0.866085 0.000000
v -0.915625 0.998079 0.571532
v -0.571513 0.998079 0.915625
v -0.915253 -0.998079 0.915625
v -0.915232 -0.915625 0.998079
v -0.997720 -0.915625 0.915625
v -0.915612 0.915625 0.998079
v -0.915635 0.998079 0.915625
v -0.998063 0.915625 0.915625
v -0.997920 0.316943 0.915625
v -0.915428 0.316943 0.998079
v -0.572765 -0.915625 0.998079
v -0.572847 -0.998079 0.915625
v -0.915393 -0.998079 0.570444
v -0.997862 -0.915625 0.570513
v -0.000000 -0.998079 0.915625
v -0.000000 -0.915625 0.998079
v -0.998079 -0.915625 0.000000
v -0.915625 -0.998079 0.000000
v -0.998068 0.281769 0.606707
v -0.966343 0.335113 0.560324
v -0.560323 0.335113 0.966343
v -0.606706 0.281768 0.998079
v 0.000000 0.281768 0.998079
v 0.000000 0.335086 0.966389
v -0.966389 0.335086 0.000000
v -0.998079 0.281769 0.000000
v -0.966287 0.908624 0.560304
v -0.998077 0.915625 0.606707
v -0.973207 0.940497 0.571532
v -0.606706 0.915625 0.998079
v -0.560304 0.908624 0.966288
v -0.571526 0.940497 0.973207
v -0.720119 0.865890 0.492809
v -0.773140 0.813064 0.492087
v -0.492087 0.813064 0.773141
v -0.492087 0.865887 0.720120
v 0.000000 0.813064 0.773141
v 0.000000 0.866085 0.720119
v -0.720119 0.866085 0.000000
v -0.773140 0.813064 0.000000
vt 0.232760 0.519531
vt 0.219607 0.543873
vt 0.144188 0.510246
vt 0.296542 0.454177
vt 0.236986 0.444278
vt 0.302510 0.446442
vt 0.000000 0.000000
vt 0.000000 0.000000
vt 0.053815 0.079420
vt 0.452394 0.360531
vt 0.259417 0.372240
vt 0.418302 0.298368
vt 0.678256 0.553421
vt 0.647818 0.553377
vt 0.629427 0.528898
vt 0.635327 0.553421
vt 0.750000 0.553421
vt 0.678557 0.594331
vt 0.353607 0.507783
vt 0.075457 0.106986
vt 0.088945 0.107029
vt 0.424441 0.507757
vt 0.353608 0.507785
vt 0.424464 0.507785
vt 0.088904 0.106979
vt 0.075453 0.106979
vt 0.635327 0.619087
vt 0.629400 0.553351
vt 0.626138 0.513778
vt 0.549990 0.490935
vt 0.419720 0.588430
vt 0.594924 0.489063
vt 0.614649 0.553349
vt 0.429266 0.510896
vt 0.143945 0.544866
vt 0.136192 0.536308
vt 0.385711 0.553421
vt 0.459915 0.553421
vt 0.459915 0.625000
vt 0.385711 0.625000
vt 0.459915 0.625000
vt 0.459915 0.553421
vt 0.459915 0.553421
vt 0.459915 0.625000
vt 0.459915 0.625000
vt 0.459915 0.553421
vt 0.464331 0.549020
vt 0.614649 0.625000
vt 0.464331 0.625000
vt 0.382179 0.553421
vt 0.072492 0.106982
vt 0.375000 0.553421
vt 0.360312 0.521151
vt 0.594912 0.483738
vt 0.000000 0.000000
vt 0.614649 0.524912
vt 0.614649 0.557909
vt 0.173047 0.351379
vt 0.385711 0.553421
vt 0.385711 0.625000
vt 0.429242 0.510243
vt 0.383826 0.553421
vt 0.385490 0.553421
vt 0.386152 0.553421
vt 0.385279 0.553421
vt 0.464331 0.623085
vt 0.464331 0.548856
vt 0.383826 0.553421
vt 0.000000 0.000000
vt 0.352036 0.660287
vt 0.369776 0.640108
vt 0.254626 0.345043
vt 0.408648 0.277106
vt 0.174239 0.324391
vt 0.184320 0.318978
vt 0.252524 0.375533
vt 0.164979 0.359199
vt 0.246852 0.348453
vt 0.295045 0.456350
vt 0.235136 0.448871
vt 0.302510 0.446442
vt 0.053815 0.079420
vt 0.000000 0.000000
vt 0.000000 0.000000
vt 0.417758 0.590517
vt 0.367369 0.640391
vt 0.236114 0.524314
vt 0.678256 0.553421
vt 0.635327 0.553421
vt 0.629427 0.528898
vt 0.647818 0.553377
vt 0.353607 0.507783
vt 0.424441 0.507757
vt 0.088945 0.107029
vt 0.075457 0.106986
vt 0.353608 0.507785
vt 0.075453 0.106979
vt 0.088904 0.106979
vt 0.424464 0.507785
vt 0.629400 0.553351
vt 0.626138 0.513778
vt 0.548461 0.493321
vt 0.451366 0.362753
vt 0.429266 0.510896
vt 0.614649 0.553349
vt 0.594924 0.489063
vt 0.174609 0.325945
vt 0.164739 0.331939
vt 0.385711 0.553421
vt 0.459915 0.553421
vt 0.459915 0.625000
vt 0.459915 0.625000
vt 0.459915 0.553421
vt 0.459915 0.553421
vt 0.459915 0.553421
vt 0.464331 0.549020
vt 0.382179 0.553421
vt 0.375000 0.553421
vt 0.072492 0.106982
vt 0.360312 0.521151
vt 0.594912 0.483738
vt 0.000000 0.000000
vt 0.614649 0.557909
vt 0.614649 0.524912
vt 0.147381 0.519705
vt 0.385711 0.553421
vt 0.385711 0.625000
vt 0.429242 0.510243
vt 0.383826 0.553421
vt 0.385490 0.553421
vt 0.385279 0.553421
vt 0.386152 0.553421
vt 0.464331 0.548856
vt 0.464331 0.623085
vt 0.383826 0.553421
vt 0.000000 0.000000
vt 0.406959 0.274592
vt 0.418214 0.298989
vt 0.352058 0.658021
vt 0.223774 0.549019
vt 0.140835 0.545913
vt 0.148955 0.553974
vt 0.253880 0.372821
vt 0.166534 0.355446
vt 0.248529 0.345675
vt 0.295435 0.454138
vt 0.235619 0.445947
vt 0.302510 0.446442
vt 0.053815 0.079420
vt 0.000000 0.000000
vt 0.000000 0.000000
vt 0.416543 0.589756
vt 0.365563 0.639027
vt 0.235700 0.521396
vt 0.629427 0.528898
vt 0.647818 0.553377
vt 0.678557 0.594331
vt 0.353607 0.507783
vt 0.424441 0.507757
vt 0.088945 0.107029
vt 0.075457 0.106986
vt 0.353608 0.507785
vt 0.075453 0.106979
vt 0.088904 0.106979
vt 0.424464 0.507785
vt 0.629400 0.553351
vt 0.635327 0.619087
vt 0.626138 0.513778
vt 0.548393 0.494123
vt 0.452859 0.362408
vt 0.429266 0.510896
vt 0.614649 0.553349
vt 0.594924 0.489063
vt 0.176559 0.322309
vt 0.166619 0.328185
vt 0.385711 0.553421
vt 0.385711 0.625000
vt 0.459915 0.625000
vt 0.459915 0.553421
vt 0.459915 0.553421
vt 0.459915 0.553421
vt 0.459915 0.625000
vt 0.459915 0.553421
vt 0.464331 0.549020
vt 0.464331 0.625000
vt 0.614649 0.625000
vt 0.382179 0.553421
vt 0.375000 0.553421
vt 0.072492 0.106982
vt 0.360312 0.521151
vt 0.594912 0.483738
vt 0.000000 0.000000
vt 0.614649 0.524912
vt 0.147027 0.515730
vt 0.385711 0.553421
vt 0.429242 0.510243
vt 0.383826 0.553421
vt 0.385490 0.553421
vt 0.385279 0.553421
vt 0.386152 0.553421
vt 0.464331 0.548856
vt 0.383826 0.553421
vt 0.000000 0.000000
vt 0.409504 0.273724
vt 0.420468 0.298254
vt 0.350043 0.656474
vt 0.223066 0.545953
vt 0.140170 0.541859
vt 0.148194 0.550017
vt 0.234280 0.522804
vt 0.221469 0.547327
vt 0.145587 0.514760
vt 0.297141 0.456564
vt 0.237451 0.447499
vt 0.302510 0.446442
vt 0.000000 0.000000
vt 0.000000 0.000000
vt 0.053815 0.079420
vt 0.451666 0.360745
vt 0.258872 0.375154
vt 0.416707 0.299066
vt 0.647818 0.553377
vt 0.629427 0.528898
vt 0.353607 0.507783
vt 0.075457 0.106986
vt 0.088945 0.107029
vt 0.424441 0.507757
vt 0.353608 0.507785
vt 0.424464 0.507785
vt 0.088904 0.106979
vt 0.075453 0.106979
vt 0.629400 0.553351
vt 0.626138 0.513778
vt 0.551078 0.489770
vt 0.422186 0.589079
vt 0.594924 0.489063
vt 0.614649 0.553349
vt 0.429266 0.510896
vt 0.145828 0.549380
vt 0.137956 0.540932
vt 0.385711 0.553421
vt 0.459915 0.553421
vt 0.459915 0.553421
vt 0.459915 0.553421
vt 0.459915 0.553421
vt 0.464331 0.549020
vt 0.382179 0.553421
vt 0.072492 0.106982
vt 0.375000 0.553421
vt 0.360312 0.521151
vt 0.594912 0.483738
vt 0.000000 0.000000
vt 0.614649 0.524912
vt 0.172219 0.355505
vt 0.385711 0.553421
vt 0.429242 0.510243
vt 0.383826 0.553421
vt 0.385490 0.553421
vt 0.386152 0.553421
vt 0.385279 0.553421
vt 0.464331 0.548856
vt 0.383826 0.553421
vt 0.000000 0.000000
vt 0.355515 0.661876
vt 0.372970 0.641451
vt 0.253701 0.348027
vt 0.406756 0.277940
vt 0.173033 0.328503
vt 0.183037 0.322949
vn 0.2218 0.2355 0.9462
vn -0.0054 0.5072 0.8618
vn 0.0000 1.0000 0.0000
vn 0.0013 1.0000 0.0019
vn -0.0000 -1.0000 0.0000
vn 0.0000 0.0000 -1.0000
vn 1.0000 -0.0001 -0.0003
vn 0.0011 1.0000 -0.0010
vn 0.2202 0.2433 0.9446
vn 0.4969 0.8678 0.0000
vn 0.0000 0.8678 -0.4969
vn 0.7072 0.7071 -0.0000
vn 0.0000 0.7071 -0.7071
vn 0.5772 -0.5773 -0.5775
vn 0.5774 0.5772 -0.5774
vn 0.7071 -0.7071 -0.0003
vn -0.0000 -0.7071 -0.7071
vn 0.7070 -0.7072 -0.0003
vn -0.8577 0.5141 0.0006
vn 1.0000 -0.0000 0.0000
vn 0.7070 -0.0002 -0.7072
vn 0.7070 -0.0001 -0.7073
vn 1.0000 -0.0002 -0.0005
vn 0.8233 0.0211 0.5672
vn -0.5672 0.0210 -0.8233
vn 0.8596 0.5111 -0.0000
vn 0.0000 0.5111 -0.8595
vn 0.8252 0.0000 0.5649
vn -0.5649 0.0000 -0.8251
vn 1.0000 -0.0001 -0.0002
vn 0.3330 -0.0000 0.9429
vn 0.7065 0.7078 -0.0001
vn 0.0001 0.7078 -0.7064
vn -0.0018 1.0000 -0.0012
vn -0.9459 0.2298 -0.2289
vn -0.9429 0.0000 -0.3330
vn -0.9447 0.2431 -0.2202
vn -0.2218 0.2355 0.9462
vn 0.0054 0.5072 0.8618
vn -0.0013 1.0000 0.0019
vn -1.0000 -0.0001 -0.0003
vn -0.0010 1.0000 -0.0010
vn -0.2202 0.2433 0.9446
vn -0.4969 0.8678 0.0000
vn -0.7072 0.7071 -0.0000
vn -0.5772 -0.5773 -0.5775
vn -0.5774 0.5772 -0.5774
vn -0.7071 -0.7071 -0.0003
vn -0.7070 -0.7072 -0.0003
vn 0.8577 0.5141 0.0006
vn -1.0000 0.0000 0.0000
vn -0.7070 -0.0002 -0.7072
vn -0.7070 -0.0001 -0.7073
vn -1.0000 -0.0002 -0.0005
vn -0.8233 0.0211 0.5672
vn 0.5672 0.0210 -0.8233
vn -0.8595 0.5111 -0.0000
vn -0.8252 0.0000 0.5649
vn 0.5649 0.0000 -0.8251
vn -1.0000 -0.0001 -0.0002
vn -0.3330 0.0000 0.9429
vn -0.7065 0.7078 -0.0001
vn -0.0001 0.7078 -0.7064
vn 0.0018 1.0000 -0.0012
vn 0.9459 0.2298 -0.2289
vn 0.9429 -0.0000 -0.3330
vn 0.9447 0.2431 -0.2202
vn 0.2218 0.2355 -0.9462
vn -0.0054 0.5072 -0.8618
vn 0.0013 1.0000 -0.0019
vn 0.0000 0.0000 1.0000
vn 1.0000 -0.0001 0.0003
vn 0.0011 1.0000 0.0010
vn 0.2202 0.2433 -0.9446
vn 0.0000 0.8678 0.4969
vn 0.0000 0.7071 0.7071
vn 0.5772 -0.5773 0.5775
vn 0.5774 0.5772 0.5774
vn 0.7071 -0.7071 0.0003
vn -0.0000 -0.7071 0.7071
vn 0.7070 -0.7072 0.0003
vn -0.8577 0.5141 -0.0006
vn 0.7070 -0.0002 0.7072
vn 0.7070 -0.0001 0.7073
vn 1.0000 -0.0002 0.0005
vn 0.8233 0.0211 -0.5672
vn -0.5672 0.0210 0.8233
vn 0.0000 0.5111 0.8595
vn 0.8252 0.0000 -0.5649
vn -0.5649 0.0000 0.8251
vn 1.0000 -0.0001 0.0002
vn 0.3330 -0.0000 -0.9429
vn 0.7065 0.7078 0.0001
vn 0.0001 0.7078 0.7064
vn -0.0018 1.0000 0.0012
vn -0.9459 0.2298 0.2289
vn -0.9429 0.0000 0.3330
vn -0.9447 0.2431 0.2202
vn -0.2218 0.2355 -0.9462
vn 0.0054 0.5072 -0.8618
vn -0.0013 1.0000 -0.0019
vn -1.0000 -0.0001 0.0003
vn -0.0010 1.0000 0.0010
vn -0.2202 0.2433 -0.9446
vn -0.5772 -0.5773 0.5775
vn -0.5774 0.5772 0.5774
vn -0.7071 -0.7071 0.0003
vn -0.7070 -0.7072 0.0003
vn 0.8577 0.5141 -0.0006
vn -0.7070 -0.0002 0.7072
vn -0.7070 -0.0001 0.7073
vn -1.0000 -0.0002 0.0005
vn -0.8233 0.0211 -0.5672
vn 0.5672 0.0210 0.8233
vn -0.8252 0.0000 -0.5649
vn 0.5649 0.0000 0.8251
vn -1.0000 -0.0001 0.0002
vn -0.3330 0.0000 -0.9429
vn -0.7065 0.7078 0.0001
vn -0.0001 0.7078 0.7064
vn 0.0018 1.0000 0.0012
vn 0.9459 0.2298 0.2289
vn 0.9429 -0.0000 0.3330
vn 0.9447 0.2431 0.2202
usemtl None
s off
f 30/1/1 31/2/1 6/3/1
f 4/4/2 30/1/2 6/3/2 3/5/2
f 7/6/3 3/7/3 6/8/3 12/9/3
f 39/10/4 4/4/4 33/11/4 75/12/4
f 82/13/5 5/14/5 18/15/5 99/16/5
f 129/17/5 41/18/5 5/14/5 82/13/5
f 27/19/6 11/20/6 15/21/6 23/22/6
f 25/23/7 20/24/7 14/25/7 13/26/7
f 5/14/5 41/18/5 56/27/5 17/28/5
f 18/15/5 5/14/5 17/28/5 8/29/5
f 130/30/8 83/31/8 4/4/8 39/10/8
f 15/21/6 9/32/6 16/33/6 23/34/6
f 24/35/9 26/36/9 6/3/9 31/2/9
f 32/37/6 2/38/6 40/39/6 74/40/6
f 104/41/10 21/42/10 1/43/10 81/44/10
f 63/45/11 40/39/11 2/38/11 22/46/11
f 23/47/6 16/33/6 57/48/6 62/49/6
f 26/50/12 25/23/12 13/26/12 12/51/12 6/52/12
f 7/6/13 12/9/13 11/20/13 27/19/13 29/53/13
f 8/29/14 9/32/14 10/54/14
f 11/20/15 12/51/15 13/55/15
f 99/16/16 18/15/16 19/56/16 98/57/16
f 17/28/17 56/27/17 57/48/17 16/33/17
f 18/15/18 8/29/18 10/54/18 19/56/18
f 4/4/19 3/5/19 7/58/19 33/11/19
f 31/59/20 117/60/20 81/44/20 1/43/20
f 15/21/21 11/20/21 13/26/21 14/25/21
f 9/32/22 15/21/22 14/25/22 10/54/22
f 8/29/17 17/28/17 16/33/17 9/32/17
f 10/54/23 14/25/23 20/61/23 19/56/23
f 24/62/24 25/63/24 26/50/24
f 27/19/25 28/64/25 29/65/25
f 21/42/26 104/41/26 105/66/26 20/67/26
f 23/47/27 62/49/27 63/45/27 22/46/27
f 24/62/28 21/42/28 20/24/28 25/23/28
f 22/46/29 28/68/29 27/19/29 23/22/29
f 20/67/30 105/66/30 98/57/30 19/56/30
f 24/62/31 31/69/31 1/43/31 21/42/31
f 117/70/32 31/2/32 30/1/32 116/71/32
f 75/12/33 33/11/33 32/72/33 74/73/33
f 116/71/34 30/1/34 4/4/34 83/31/34
f 7/58/35 32/72/35 33/11/35
f 22/46/36 2/38/36 32/37/36 28/64/36
f 29/74/37 28/75/37 32/72/37 7/58/37
f 70/76/38 42/77/38 71/78/38
f 37/79/39 36/80/39 42/77/39 70/76/39
f 43/81/3 48/82/3 42/83/3 36/84/3
f 39/85/40 75/86/40 73/87/40 37/79/40
f 127/88/5 148/89/5 54/90/5 38/91/5
f 129/17/5 127/88/5 38/91/5 41/18/5
f 67/92/6 61/93/6 51/94/6 47/95/6
f 65/96/41 49/97/41 50/98/41 58/99/41
f 38/91/5 53/100/5 56/27/5 41/18/5
f 54/90/5 44/101/5 53/100/5 38/91/5
f 130/102/42 39/85/42 37/79/42 128/103/42
f 51/94/6 61/104/6 52/105/6 45/106/6
f 64/107/43 71/78/43 42/77/43 66/108/43
f 72/109/6 74/40/6 40/39/6 35/110/6
f 155/111/44 126/112/44 34/113/44 59/114/44
f 63/45/11 60/115/11 35/110/11 40/39/11
f 61/116/6 62/49/6 57/48/6 52/105/6
f 66/117/45 42/118/45 48/119/45 49/97/45 65/96/45
f 43/81/13 69/120/13 67/92/13 47/95/13 48/82/13
f 44/101/46 46/121/46 45/106/46
f 47/95/47 49/122/47 48/119/47
f 148/89/48 147/123/48 55/124/48 54/90/48
f 53/100/17 52/105/17 57/48/17 56/27/17
f 54/90/49 55/124/49 46/121/49 44/101/49
f 37/79/50 73/87/50 43/125/50 36/80/50
f 71/126/51 34/113/51 126/112/51 170/127/51
f 51/94/52 50/98/52 49/97/52 47/95/52
f 45/106/53 46/121/53 50/98/53 51/94/53
f 44/101/17 45/106/17 52/105/17 53/100/17
f 46/121/54 55/124/54 58/128/54 50/98/54
f 64/129/55 66/117/55 65/130/55
f 67/92/56 69/131/56 68/132/56
f 59/114/57 58/133/57 156/134/57 155/111/57
f 61/116/27 60/115/27 63/45/27 62/49/27
f 64/129/58 65/96/58 58/99/58 59/114/58
f 60/115/59 61/93/59 67/92/59 68/135/59
f 58/133/60 55/124/60 147/123/60 156/134/60
f 64/129/61 59/114/61 34/113/61 71/136/61
f 170/137/62 169/138/62 70/76/62 71/78/62
f 75/86/63 74/139/63 72/140/63 73/87/63
f 169/138/64 128/103/64 37/79/64 70/76/64
f 43/125/65 73/87/65 72/140/65
f 60/115/66 68/132/66 72/109/66 35/110/66
f 69/141/67 43/125/67 72/140/67 68/142/67
f 112/143/68 84/144/68 113/145/68
f 79/146/69 78/147/69 84/144/69 112/143/69
f 85/148/3 90/149/3 84/150/3 78/151/3
f 123/152/70 168/153/70 115/154/70 79/146/70
f 82/13/5 99/16/5 96/155/5 80/156/5
f 129/17/5 82/13/5 80/156/5 125/157/5
f 109/158/71 103/159/71 93/160/71 89/161/71
f 107/162/72 91/163/72 92/164/72 100/165/72
f 80/156/5 95/166/5 145/167/5 125/157/5
f 96/155/5 86/168/5 95/166/5 80/156/5
f 130/169/73 123/152/73 79/146/73 83/170/73
f 93/160/71 103/171/71 94/172/71 87/173/71
f 106/174/74 113/145/74 84/144/74 108/175/74
f 114/176/71 167/177/71 124/178/71 77/179/71
f 104/41/10 81/44/10 76/180/10 101/181/10
f 154/182/75 102/183/75 77/179/75 124/178/75
f 103/184/71 153/185/71 146/186/71 94/172/71
f 108/187/12 84/188/12 90/189/12 91/163/12 107/162/12
f 85/148/76 111/190/76 109/158/76 89/161/76 90/149/76
f 86/168/77 88/191/77 87/173/77
f 89/161/78 91/192/78 90/189/78
f 99/16/79 98/57/79 97/193/79 96/155/79
f 95/166/80 94/172/80 146/186/80 145/167/80
f 96/155/81 97/193/81 88/191/81 86/168/81
f 79/146/82 115/154/82 85/194/82 78/147/82
f 113/195/20 76/180/20 81/44/20 117/60/20
f 93/160/83 92/164/83 91/163/83 89/161/83
f 87/173/84 88/191/84 92/164/84 93/160/84
f 86/168/80 87/173/80 94/172/80 95/166/80
f 88/191/85 97/193/85 100/196/85 92/164/85
f 106/197/86 108/187/86 107/198/86
f 109/158/87 111/199/87 110/200/87
f 101/181/26 100/201/26 105/66/26 104/41/26
f 103/184/88 102/183/88 154/182/88 153/185/88
f 106/197/89 107/162/89 100/165/89 101/181/89
f 102/183/90 103/159/90 109/158/90 110/202/90
f 100/201/91 97/193/91 98/57/91 105/66/91
f 106/197/92 101/181/92 76/180/92 113/203/92
f 117/204/93 116/205/93 112/143/93 113/145/93
f 168/153/94 167/206/94 114/207/94 115/154/94
f 116/205/95 83/170/95 79/146/95 112/143/95
f 85/194/96 115/154/96 114/207/96
f 102/183/97 110/200/97 114/176/97 77/179/97
f 111/208/98 85/194/98 114/207/98 110/209/98
f 163/210/99 164/211/99 131/212/99
f 121/213/100 163/210/100 131/212/100 120/214/100
f 132/215/3 120/216/3 131/217/3 137/218/3
f 123/219/101 121/213/101 166/220/101 168/221/101
f 127/88/5 122/222/5 143/223/5 148/89/5
f 129/17/5 125/157/5 122/222/5 127/88/5
f 160/224/71 136/225/71 140/226/71 152/227/71
f 158/228/102 149/229/102 139/230/102 138/231/102
f 122/222/5 125/157/5 145/167/5 142/232/5
f 143/223/5 122/222/5 142/232/5 133/233/5
f 130/234/103 128/235/103 121/213/103 123/219/103
f 140/226/71 134/236/71 141/237/71 152/238/71
f 157/239/104 159/240/104 131/212/104 164/211/104
f 165/241/71 119/242/71 124/178/71 167/177/71
f 155/111/44 150/243/44 118/244/44 126/112/44
f 154/182/75 124/178/75 119/242/75 151/245/75
f 152/246/71 141/237/71 146/186/71 153/185/71
f 159/247/45 158/228/45 138/231/45 137/248/45 131/249/45
f 132/215/76 137/218/76 136/225/76 160/224/76 162/250/76
f 133/233/105 134/236/105 135/251/105
f 136/225/106 137/248/106 138/252/106
f 148/89/107 143/223/107 144/253/107 147/123/107
f 142/232/80 145/167/80 146/186/80 141/237/80
f 143/223/108 133/233/108 135/251/108 144/253/108
f 121/213/109 120/214/109 132/254/109 166/220/109
f 164/255/51 170/127/51 126/112/51 118/244/51
f 140/226/110 136/225/110 138/231/110 139/230/110
f 134/236/111 140/226/111 139/230/111 135/251/111
f 133/233/80 142/232/80 141/237/80 134/236/80
f 135/251/112 139/230/112 149/256/112 144/253/112
f 157/257/113 158/258/113 159/247/113
f 160/224/114 161/259/114 162/260/114
f 150/243/57 155/111/57 156/134/57 149/261/57
f 152/246/88 153/185/88 154/182/88 151/245/88
f 157/257/115 150/243/115 149/229/115 158/228/115
f 151/245/116 161/262/116 160/224/116 152/227/116
f 149/261/117 156/134/117 147/123/117 144/253/117
f 157/257/118 164/263/118 118/244/118 150/243/118
f 170/264/119 164/211/119 163/210/119 169/265/119
f 168/221/120 166/220/120 165/266/120 167/267/120
f 169/265/121 163/210/121 121/213/121 128/235/121
f 132/254/122 165/266/122 166/220/122
f 151/245/123 119/242/123 165/241/123 161/259/123
f 162/268/124 161/269/124 165/266/124 132/254/124
