# Blender v2.83.0 OBJ File: 'Platform-shattered.blend'
# www.blender.org
mtllib Platform.mtl
o Cube.002
v -0.386570 -0.222863 -0.246043
v -0.246043 -0.222863 -0.386570
v -0.285716 -0.499040 -0.285766
v -0.246043 -0.432524 -0.247958
v -0.286423 0.499040 -0.285222
v -0.457813 -0.499040 -0.285766
v -0.285756 -0.499040 -0.457813
v -0.457626 0.499040 -0.457813
v -0.457616 0.457813 -0.499040
v -0.498860 0.457813 -0.457813
v -0.457806 -0.457813 -0.499040
v -0.457817 -0.499040 -0.457813
v -0.499032 -0.457813 -0.457813
v -0.498960 -0.158471 -0.457813
v -0.457714 -0.158471 -0.499040
v -0.286382 0.457813 -0.499040
v -0.286423 0.499040 -0.457813
v -0.457696 0.499040 -0.285222
v -0.498931 0.457813 -0.285256
v -0.499034 -0.140884 -0.303353
v -0.483171 -0.167556 -0.280162
v -0.280162 -0.167556 -0.483171
v -0.303353 -0.140884 -0.499040
v -0.483144 -0.454312 -0.280152
v -0.499039 -0.457813 -0.303353
v -0.486604 -0.470248 -0.285766
v -0.303353 -0.457813 -0.499040
v -0.280152 -0.454312 -0.483144
v -0.285763 -0.470248 -0.486604
v -0.360060 -0.432945 -0.246405
v -0.386570 -0.406532 -0.246043
v -0.246043 -0.406532 -0.386570
v -0.246043 -0.432943 -0.360060
v 0.386570 -0.222863 -0.246043
v 0.246043 -0.222863 -0.386570
v 0.285716 -0.499040 -0.285766
v 0.246043 -0.432524 -0.247958
v 0.286423 0.499040 -0.285222
v 0.000000 -0.433043 -0.246043
v 0.000000 -0.222863 -0.386570
v 0.000000 0.499040 -0.285222
v 0.457813 -0.499040 -0.285766
v 0.285756 -0.499040 -0.457813
v 0.457626 0.499040 -0.457813
v 0.457616 0.457813 -0.499040
v 0.498860 0.457813 -0.457813
v 0.457806 -0.457813 -0.499040
v 0.457817 -0.499040 -0.457813
v 0.499032 -0.457813 -0.457813
v 0.498960 -0.158471 -0.457813
v 0.457714 -0.158471 -0.499040
v 0.286382 0.457813 -0.499040
v 0.286423 0.499040 -0.457813
v 0.457696 0.499040 -0.285222
v 0.498931 0.457813 -0.285256
v 0.000000 0.499040 -0.457813
v 0.000000 0.457813 -0.499040
v 0.499034 -0.140884 -0.303353
v 0.483171 -0.167556 -0.280162
v 0.280162 -0.167556 -0.483171
v 0.303353 -0.140884 -0.499040
v 0.000000 -0.140884 -0.499040
v 0.000000 -0.167543 -0.483195
v 0.483144 -0.454312 -0.280152
v 0.499039 -0.457813 -0.303353
v 0.486604 -0.470248 -0.285766
v 0.303353 -0.457813 -0.499040
v 0.280152 -0.454312 -0.483144
v 0.285763 -0.470248 -0.486604
v 0.360060 -0.432945 -0.246405
v 0.386570 -0.406532 -0.246043
v 0.246043 -0.406532 -0.386570
v 0.246043 -0.432943 -0.360060
v 0.000000 -0.406532 -0.386570
v 0.000000 -0.433043 -0.360060
v -0.386570 -0.222863 0.246043
v -0.246043 -0.222863 0.386570
v -0.285716 -0.499040 0.285766
v -0.246043 -0.432524 0.247958
v -0.286423 0.499040 0.285222
v -0.386570 -0.222863 0.000000
v -0.286423 0.499040 0.000000
v -0.245790 -0.433043 0.000000
v -0.457813 -0.499040 0.285766
v -0.285756 -0.499040 0.457813
v -0.457626 0.499040 0.457813
v -0.457616 0.457813 0.499040
v -0.498860 0.457813 0.457813
v -0.457806 -0.457813 0.499040
v -0.457817 -0.499040 0.457813
v -0.499032 -0.457813 0.457813
v -0.498960 -0.158471 0.457813
v -0.457714 -0.158471 0.499040
v -0.286382 0.457813 0.499040
v -0.286423 0.499040 0.457813
v -0.457696 0.499040 0.285222
v -0.498931 0.457813 0.285256
v -0.499040 0.457813 0.000000
v -0.457813 0.499040 0.000000
v -0.499034 -0.140884 0.303353
v -0.483171 -0.167556 0.280162
v -0.280162 -0.167556 0.483171
v -0.303353 -0.140884 0.499040
v -0.483195 -0.167543 0.000000
v -0.499040 -0.140884 0.000000
v -0.483144 -0.454312 0.280152
v -0.499039 -0.457813 0.303353
v -0.486604 -0.470248 0.285766
v -0.303353 -0.457813 0.499040
v -0.280152 -0.454312 0.483144
v -0.285763 -0.470248 0.486604
v -0.360060 -0.432945 0.246405
v -0.386570 -0.406532 0.246043
v -0.246043 -0.406532 0.386570
v -0.246043 -0.432943 0.360060
v -0.360060 -0.433043 0.000000
v -0.386570 -0.406532 0.000000
v 0.386570 -0.222863 0.246043
v 0.246043 -0.222863 0.386570
v 0.285716 -0.499040 0.285766
v 0.246043 -0.432524 0.247958
v 0.286423 0.499040 0.285222
v 0.000000 -0.433043 0.246043
v 0.000000 -0.222863 0.386570
v 0.000000 0.499040 0.285222
v 0.386570 -0.222863 0.000000
v 0.286423 0.499040 0.000000
v 0.245790 -0.433043 0.000000
v 0.000000 0.499040 0.000000
v 0.000000 -0.433043 0.000000
v 0.457813 -0.499040 0.285766
v 0.285756 -0.499040 0.457813
v 0.457626 0.499040 0.457813
v 0.457616 0.457813 0.499040
v 0.498860 0.457813 0.457813
v 0.457806 -0.457813 0.499040
v 0.457817 -0.499040 0.457813
v 0.499032 -0.457813 0.457813
v 0.498960 -0.158471 0.457813
v 0.457714 -0.158471 0.499040
v 0.286382 0.457813 0.499040
v 0.286423 0.499040 0.457813
v 0.457696 0.499040 0.285222
v 0.498931 0.457813 0.285256
v 0.000000 0.499040 0.457813
v 0.000000 0.457813 0.499040
v 0.499040 0.457813 0.000000
v 0.457813 0.499040 0.000000
v 0.499034 -0.140884 0.303353
v 0.483171 -0.167556 0.280162
v 0.280162 -0.167556 0.483171
v 0.303353 -0.140884 0.499040
v 0.000000 -0.140884 0.499040
v 0.000000 -0.167543 0.483195
v 0.483195 -0.167543 0.000000
v 0.499040 -0.140884 0.000000
v 0.483144 -0.454312 0.280152
v 0.499039 -0.457813 0.303353
v 0.486604 -0.470248 0.285766
v 0.303353 -0.457813 0.499040
v 0.280152 -0.454312 0.483144
v 0.285763 -0.470248 0.486604
v 0.360060 -0.432945 0.246405
v 0.386570 -0.406532 0.246043
v 0.246043 -0.406532 0.386570
v 0.246043 -0.432943 0.360060
v 0.000000 -0.406532 0.386570
v 0.000000 -0.433043 0.360060
v 0.360060 -0.433043 0.000000
v 0.386570 -0.406532 0.000000
vt 0.375000 0.553421
vt 0.385711 0.553421
vt 0.375000 0.553421
vt 0.000000 0.000000
vt 0.000000 0.000000
vt 0.000000 0.000000
vt 0.000000 0.000000
vt 0.302510 0.446442
vt 0.053815 0.079420
vt 0.000000 0.000000
vt 0.000000 0.000000
vt 0.000000 0.000000
vt 0.678256 0.553421
vt 0.647818 0.553377
vt 0.629427 0.528898
vt 0.635327 0.553421
vt 0.750000 0.553421
vt 0.678557 0.594331
vt 0.353607 0.507783
vt 0.075457 0.106986
vt 0.088945 0.107029
vt 0.424441 0.507757
vt 0.353608 0.507785
vt 0.424464 0.507785
vt 0.088904 0.106979
vt 0.075453 0.106979
vt 0.635327 0.619087
vt 0.629400 0.553351
vt 0.626138 0.513778
vt 0.000000 0.000000
vt 0.238318 0.397196
vt 0.250000 0.553421
vt 0.594924 0.489063
vt 0.614649 0.553349
vt 0.429266 0.510896
vt 0.383826 0.553421
vt 0.382179 0.553421
vt 0.000000 0.000000
vt 0.385711 0.553421
vt 0.459915 0.553421
vt 0.459915 0.625000
vt 0.385711 0.625000
vt 0.459915 0.625000
vt 0.459915 0.553421
vt 0.459915 0.553421
vt 0.459915 0.625000
vt 0.459915 0.625000
vt 0.459915 0.553421
vt 0.464331 0.549020
vt 0.614649 0.625000
vt 0.464331 0.625000
vt 0.072492 0.106982
vt 0.360312 0.521151
vt 0.594912 0.483738
vt 0.000000 0.000000
vt 0.614649 0.524912
vt 0.614649 0.557909
vt 0.385711 0.625000
vt 0.429242 0.510243
vt 0.385490 0.553421
vt 0.386152 0.553421
vt 0.385279 0.553421
vt 0.464331 0.623085
vt 0.464331 0.548856
vt 0.383826 0.553421
vt 0.375000 0.625000
vt 0.000000 0.000000
vt 0.000000 0.000000
vt 0.349261 0.582102
vt 0.375000 0.553421
vt 0.375000 0.553421
vt 0.385711 0.553421
vt 0.000000 0.000000
vt 0.000000 0.000000
vt 0.000000 0.000000
vt 0.000000 0.000000
vt 0.302510 0.446442
vt 0.053815 0.079420
vt 0.000000 0.000000
vt 0.678256 0.553421
vt 0.635327 0.553421
vt 0.629427 0.528898
vt 0.647818 0.553377
vt 0.353607 0.507783
vt 0.424441 0.507757
vt 0.088945 0.107029
vt 0.075457 0.106986
vt 0.353608 0.507785
vt 0.075453 0.106979
vt 0.088904 0.106979
vt 0.424464 0.507785
vt 0.629400 0.553351
vt 0.626138 0.513778
vt 0.238318 0.397196
vt 0.429266 0.510896
vt 0.614649 0.553349
vt 0.594924 0.489063
vt 0.383826 0.553421
vt 0.000000 0.000000
vt 0.382179 0.553421
vt 0.385711 0.553421
vt 0.459915 0.553421
vt 0.459915 0.625000
vt 0.459915 0.625000
vt 0.459915 0.553421
vt 0.459915 0.553421
vt 0.459915 0.553421
vt 0.464331 0.549020
vt 0.072492 0.106982
vt 0.360312 0.521151
vt 0.594912 0.483738
vt 0.000000 0.000000
vt 0.614649 0.557909
vt 0.614649 0.524912
vt 0.385711 0.625000
vt 0.429242 0.510243
vt 0.385490 0.553421
vt 0.385279 0.553421
vt 0.386152 0.553421
vt 0.464331 0.548856
vt 0.464331 0.623085
vt 0.383826 0.553421
vt 0.375000 0.625000
vt 0.000000 0.000000
vt 0.349261 0.582102
vt 0.375000 0.553421
vt 0.375000 0.553421
vt 0.385711 0.553421
vt 0.000000 0.000000
vt 0.000000 0.000000
vt 0.000000 0.000000
vt 0.000000 0.000000
vt 0.302510 0.446442
vt 0.053815 0.079420
vt 0.000000 0.000000
vt 0.000000 0.000000
vt 0.000000 0.000000
vt 0.629427 0.528898
vt 0.647818 0.553377
vt 0.678557 0.594331
vt 0.353607 0.507783
vt 0.424441 0.507757
vt 0.088945 0.107029
vt 0.075457 0.106986
vt 0.353608 0.507785
vt 0.075453 0.106979
vt 0.088904 0.106979
vt 0.424464 0.507785
vt 0.629400 0.553351
vt 0.635327 0.619087
vt 0.626138 0.513778
vt 0.250000 0.553421
vt 0.429266 0.510896
vt 0.614649 0.553349
vt 0.594924 0.489063
vt 0.383826 0.553421
vt 0.000000 0.000000
vt 0.382179 0.553421
vt 0.385711 0.553421
vt 0.385711 0.625000
vt 0.459915 0.625000
vt 0.459915 0.553421
vt 0.459915 0.553421
vt 0.459915 0.553421
vt 0.459915 0.625000
vt 0.459915 0.553421
vt 0.464331 0.549020
vt 0.464331 0.625000
vt 0.614649 0.625000
vt 0.072492 0.106982
vt 0.360312 0.521151
vt 0.594912 0.483738
vt 0.000000 0.000000
vt 0.614649 0.524912
vt 0.429242 0.510243
vt 0.385490 0.553421
vt 0.385279 0.553421
vt 0.386152 0.553421
vt 0.464331 0.548856
vt 0.383826 0.553421
vt 0.000000 0.000000
vt 0.000000 0.000000
vt 0.375000 0.553421
vt 0.385711 0.553421
vt 0.375000 0.553421
vt 0.000000 0.000000
vt 0.000000 0.000000
vt 0.000000 0.000000
vt 0.000000 0.000000
vt 0.302510 0.446442
vt 0.053815 0.079420
vt 0.000000 0.000000
vt 0.647818 0.553377
vt 0.629427 0.528898
vt 0.353607 0.507783
vt 0.075457 0.106986
vt 0.088945 0.107029
vt 0.424441 0.507757
vt 0.353608 0.507785
vt 0.424464 0.507785
vt 0.088904 0.106979
vt 0.075453 0.106979
vt 0.629400 0.553351
vt 0.626138 0.513778
vt 0.594924 0.489063
vt 0.614649 0.553349
vt 0.429266 0.510896
vt 0.383826 0.553421
vt 0.382179 0.553421
vt 0.000000 0.000000
vt 0.385711 0.553421
vt 0.459915 0.553421
vt 0.459915 0.553421
vt 0.459915 0.553421
vt 0.459915 0.553421
vt 0.464331 0.549020
vt 0.072492 0.106982
vt 0.360312 0.521151
vt 0.594912 0.483738
vt 0.000000 0.000000
vt 0.614649 0.524912
vt 0.429242 0.510243
vt 0.385490 0.553421
vt 0.386152 0.553421
vt 0.385279 0.553421
vt 0.464331 0.548856
vt 0.383826 0.553421
vt 0.000000 0.000000
vn -0.2218 -0.2355 0.9462
vn 0.0054 -0.5072 0.8618
vn 0.0000 -1.0000 0.0000
vn -0.0013 -1.0000 0.0019
vn 0.0000 1.0000 0.0000
vn 0.0000 0.0000 -1.0000
vn -1.0000 0.0001 -0.0003
vn -0.0010 -1.0000 -0.0010
vn -0.2202 -0.2433 0.9446
vn -0.4969 -0.8678 0.0000
vn 0.0000 -0.8678 -0.4969
vn -0.7072 -0.7071 -0.0000
vn -0.0000 -0.7071 -0.7071
vn -0.5772 0.5773 -0.5775
vn -0.5774 -0.5772 -0.5774
vn -0.7071 0.7071 -0.0003
vn 0.0000 0.7071 -0.7071
vn -0.7070 0.7072 -0.0003
vn 0.8577 -0.5141 0.0006
vn -1.0000 0.0000 0.0000
vn -0.7070 0.0002 -0.7072
vn -0.7070 0.0001 -0.7073
vn -1.0000 0.0002 -0.0005
vn -0.8233 -0.0211 0.5672
vn 0.5672 -0.0210 -0.8233
vn -0.8596 -0.5111 -0.0000
vn -0.0000 -0.5111 -0.8595
vn -0.8252 -0.0000 0.5649
vn 0.5649 -0.0000 -0.8251
vn -1.0000 0.0001 -0.0002
vn -0.3330 0.0000 0.9429
vn -0.7065 -0.7078 -0.0001
vn -0.0001 -0.7078 -0.7064
vn 0.0018 -1.0000 -0.0012
vn 0.9459 -0.2298 -0.2289
vn 0.9429 0.0000 -0.3330
vn 0.9447 -0.2431 -0.2202
vn 0.2218 -0.2355 0.9462
vn -0.0054 -0.5072 0.8618
vn 0.0013 -1.0000 0.0019
vn 1.0000 0.0001 -0.0003
vn 0.0010 -1.0000 -0.0010
vn 0.2202 -0.2433 0.9446
vn 0.4969 -0.8678 0.0000
vn 0.7072 -0.7071 -0.0000
vn 0.5772 0.5773 -0.5775
vn 0.5774 -0.5772 -0.5774
vn 0.7071 0.7071 -0.0003
vn 0.7070 0.7072 -0.0003
vn -0.8577 -0.5141 0.0006
vn 1.0000 0.0000 0.0000
vn 0.7070 0.0002 -0.7072
vn 0.7070 0.0001 -0.7073
vn 1.0000 0.0002 -0.0005
vn 0.8233 -0.0211 0.5672
vn -0.5672 -0.0210 -0.8233
vn 0.8596 -0.5111 -0.0000
vn 0.8252 -0.0000 0.5649
vn -0.5649 -0.0000 -0.8251
vn 1.0000 0.0001 -0.0002
vn 0.3330 0.0000 0.9429
vn 0.7065 -0.7078 -0.0001
vn 0.0001 -0.7078 -0.7064
vn -0.0018 -1.0000 -0.0012
vn -0.9459 -0.2298 -0.2289
vn -0.9429 0.0000 -0.3330
vn -0.9447 -0.2431 -0.2202
vn -0.2218 -0.2355 -0.9462
vn 0.0054 -0.5072 -0.8618
vn -0.0013 -1.0000 -0.0019
vn 0.0000 0.0000 1.0000
vn -1.0000 0.0001 0.0003
vn -0.0010 -1.0000 0.0010
vn -0.2202 -0.2433 -0.9446
vn 0.0000 -0.8678 0.4969
vn 0.0000 -0.7071 0.7071
vn -0.5772 0.5773 0.5775
vn -0.5774 -0.5772 0.5774
vn -0.7071 0.7071 0.0003
vn 0.0000 0.7071 0.7071
vn -0.7070 0.7072 0.0003
vn 0.8577 -0.5141 -0.0006
vn -0.7070 0.0002 0.7072
vn -0.7070 0.0001 0.7073
vn -1.0000 0.0002 0.0005
vn -0.8233 -0.0211 -0.5672
vn 0.5672 -0.0210 0.8233
vn -0.0000 -0.5111 0.8595
vn -0.8252 -0.0000 -0.5649
vn 0.5649 -0.0000 0.8251
vn -1.0000 0.0001 0.0002
vn -0.3330 0.0000 -0.9429
vn -0.7065 -0.7078 0.0001
vn -0.0001 -0.7078 0.7064
vn 0.0018 -1.0000 0.0012
vn 0.9459 -0.2298 0.2289
vn 0.9429 0.0000 0.3330
vn 0.9447 -0.2431 0.2202
vn 0.2218 -0.2355 -0.9462
vn -0.0054 -0.5072 -0.8618
vn 0.0013 -1.0000 -0.0019
vn 1.0000 0.0001 0.0003
vn 0.0010 -1.0000 0.0010
vn 0.2202 -0.2433 -0.9446
vn 0.5772 0.5773 0.5775
vn 0.5774 -0.5772 0.5774
vn 0.7071 0.7071 0.0003
vn 0.7070 0.7072 0.0003
vn -0.8577 -0.5141 -0.0006
vn 0.7070 0.0002 0.7072
vn 0.7070 0.0001 0.7073
vn 1.0000 0.0002 0.0005
vn 0.8233 -0.0211 -0.5672
vn -0.5672 -0.0210 0.8233
vn 0.8252 -0.0000 -0.5649
vn -0.5649 -0.0000 0.8251
vn 1.0000 0.0001 0.0002
vn 0.3330 0.0000 -0.9429
vn 0.7065 -0.7078 0.0001
vn 0.0001 -0.7078 0.7064
vn -0.0018 -1.0000 0.0012
vn -0.9459 -0.2298 0.2289
vn -0.9429 0.0000 0.3330
vn -0.9447 -0.2431 0.2202
usemtl None
s off
f 30/1/1 31/2/1 6/3/1
f 4/4/2 30/5/2 6/6/2 3/7/2
f 7/8/3 3/7/3 6/6/3 12/9/3
f 39/10/4 4/4/4 33/11/4 75/12/4
f 82/13/5 5/14/5 18/15/5 99/16/5
f 129/17/5 41/18/5 5/14/5 82/13/5
f 27/19/6 11/20/6 15/21/6 23/22/6
f 25/23/7 20/24/7 14/25/7 13/26/7
f 5/14/5 41/18/5 56/27/5 17/28/5
f 18/15/5 5/14/5 17/28/5 8/29/5
f 130/30/8 83/31/8 4/4/8 39/32/8
f 15/21/6 9/33/6 16/34/6 23/35/6
f 24/36/9 26/37/9 6/3/9 31/38/9
f 32/39/6 2/40/6 40/41/6 74/42/6
f 104/43/10 21/44/10 1/45/10 81/46/10
f 63/47/11 40/41/11 2/40/11 22/48/11
f 23/49/6 16/34/6 57/50/6 62/51/6
f 26/37/12 25/23/12 13/26/12 12/52/12 6/3/12
f 7/8/13 12/9/13 11/20/13 27/19/13 29/53/13
f 8/29/14 9/33/14 10/54/14
f 11/20/15 12/52/15 13/55/15
f 99/16/16 18/15/16 19/56/16 98/57/16
f 17/28/17 56/27/17 57/50/17 16/34/17
f 18/15/18 8/29/18 10/54/18 19/56/18
f 4/4/19 3/7/19 7/8/19 33/11/19
f 31/2/20 117/58/20 81/46/20 1/45/20
f 15/21/21 11/20/21 13/26/21 14/25/21
f 9/33/22 15/21/22 14/25/22 10/54/22
f 8/29/17 17/28/17 16/34/17 9/33/17
f 10/54/23 14/25/23 20/59/23 19/56/23
f 24/36/24 25/60/24 26/37/24
f 27/19/25 28/61/25 29/62/25
f 21/44/26 104/43/26 105/63/26 20/64/26
f 23/49/27 62/51/27 63/47/27 22/48/27
f 24/36/28 21/44/28 20/24/28 25/23/28
f 22/48/29 28/65/29 27/19/29 23/22/29
f 20/64/30 105/63/30 98/57/30 19/56/30
f 24/36/31 31/38/31 1/45/31 21/44/31
f 117/58/32 31/2/32 30/1/32 116/66/32
f 75/12/33 33/11/33 32/67/33 74/68/33
f 116/69/34 30/5/34 4/4/34 83/31/34
f 7/8/35 32/67/35 33/11/35
f 22/48/36 2/40/36 32/39/36 28/61/36
f 29/53/37 28/61/37 32/67/37 7/8/37
f 70/70/38 42/71/38 71/72/38
f 37/73/39 36/74/39 42/75/39 70/76/39
f 43/77/3 48/78/3 42/75/3 36/74/3
f 39/10/40 75/12/40 73/79/40 37/73/40
f 127/80/5 148/81/5 54/82/5 38/83/5
f 129/17/5 127/80/5 38/83/5 41/18/5
f 67/84/6 61/85/6 51/86/6 47/87/6
f 65/88/41 49/89/41 50/90/41 58/91/41
f 38/83/5 53/92/5 56/27/5 41/18/5
f 54/82/5 44/93/5 53/92/5 38/83/5
f 130/30/42 39/32/42 37/73/42 128/94/42
f 51/86/6 61/95/6 52/96/6 45/97/6
f 64/98/43 71/99/43 42/71/43 66/100/43
f 72/101/6 74/42/6 40/41/6 35/102/6
f 155/103/44 126/104/44 34/105/44 59/106/44
f 63/47/11 60/107/11 35/102/11 40/41/11
f 61/108/6 62/51/6 57/50/6 52/96/6
f 66/100/45 42/71/45 48/109/45 49/89/45 65/88/45
f 43/77/13 69/110/13 67/84/13 47/87/13 48/78/13
f 44/93/46 46/111/46 45/97/46
f 47/87/47 49/112/47 48/109/47
f 148/81/48 147/113/48 55/114/48 54/82/48
f 53/92/17 52/96/17 57/50/17 56/27/17
f 54/82/49 55/114/49 46/111/49 44/93/49
f 37/73/50 73/79/50 43/77/50 36/74/50
f 71/72/51 34/105/51 126/104/51 170/115/51
f 51/86/52 50/90/52 49/89/52 47/87/52
f 45/97/53 46/111/53 50/90/53 51/86/53
f 44/93/17 45/97/17 52/96/17 53/92/17
f 46/111/54 55/114/54 58/116/54 50/90/54
f 64/98/55 66/100/55 65/117/55
f 67/84/56 69/118/56 68/119/56
f 59/106/57 58/120/57 156/121/57 155/103/57
f 61/108/27 60/107/27 63/47/27 62/51/27
f 64/98/58 65/88/58 58/91/58 59/106/58
f 60/107/59 61/85/59 67/84/59 68/122/59
f 58/120/60 55/114/60 147/113/60 156/121/60
f 64/98/61 59/106/61 34/105/61 71/99/61
f 170/115/62 169/123/62 70/70/62 71/72/62
f 75/12/63 74/68/63 72/124/63 73/79/63
f 169/125/64 128/94/64 37/73/64 70/76/64
f 43/77/65 73/79/65 72/124/65
f 60/107/66 68/119/66 72/101/66 35/102/66
f 69/110/67 43/77/67 72/124/67 68/119/67
f 112/126/68 84/127/68 113/128/68
f 79/129/69 78/130/69 84/131/69 112/132/69
f 85/133/3 90/134/3 84/131/3 78/130/3
f 123/135/70 168/136/70 115/137/70 79/129/70
f 82/13/5 99/16/5 96/138/5 80/139/5
f 129/17/5 82/13/5 80/139/5 125/140/5
f 109/141/71 103/142/71 93/143/71 89/144/71
f 107/145/72 91/146/72 92/147/72 100/148/72
f 80/139/5 95/149/5 145/150/5 125/140/5
f 96/138/5 86/151/5 95/149/5 80/139/5
f 130/30/73 123/152/73 79/129/73 83/31/73
f 93/143/71 103/153/71 94/154/71 87/155/71
f 106/156/74 113/157/74 84/127/74 108/158/74
f 114/159/71 167/160/71 124/161/71 77/162/71
f 104/43/10 81/46/10 76/163/10 101/164/10
f 154/165/75 102/166/75 77/162/75 124/161/75
f 103/167/71 153/168/71 146/169/71 94/154/71
f 108/158/12 84/127/12 90/170/12 91/146/12 107/145/12
f 85/133/76 111/171/76 109/141/76 89/144/76 90/134/76
f 86/151/77 88/172/77 87/155/77
f 89/144/78 91/173/78 90/170/78
f 99/16/79 98/57/79 97/174/79 96/138/79
f 95/149/80 94/154/80 146/169/80 145/150/80
f 96/138/81 97/174/81 88/172/81 86/151/81
f 79/129/82 115/137/82 85/133/82 78/130/82
f 113/128/20 76/163/20 81/46/20 117/58/20
f 93/143/83 92/147/83 91/146/83 89/144/83
f 87/155/84 88/172/84 92/147/84 93/143/84
f 86/151/80 87/155/80 94/154/80 95/149/80
f 88/172/85 97/174/85 100/175/85 92/147/85
f 106/156/86 108/158/86 107/176/86
f 109/141/87 111/177/87 110/178/87
f 101/164/26 100/179/26 105/63/26 104/43/26
f 103/167/88 102/166/88 154/165/88 153/168/88
f 106/156/89 107/145/89 100/148/89 101/164/89
f 102/166/90 103/142/90 109/141/90 110/180/90
f 100/179/91 97/174/91 98/57/91 105/63/91
f 106/156/92 101/164/92 76/163/92 113/157/92
f 117/58/93 116/66/93 112/126/93 113/128/93
f 168/136/94 167/181/94 114/182/94 115/137/94
f 116/69/95 83/31/95 79/129/95 112/132/95
f 85/133/96 115/137/96 114/182/96
f 102/166/97 110/178/97 114/159/97 77/162/97
f 111/171/98 85/133/98 114/182/98 110/178/98
f 163/183/99 164/184/99 131/185/99
f 121/186/100 163/187/100 131/188/100 120/189/100
f 132/190/3 120/189/3 131/188/3 137/191/3
f 123/135/101 121/186/101 166/192/101 168/136/101
f 127/80/5 122/193/5 143/194/5 148/81/5
f 129/17/5 125/140/5 122/193/5 127/80/5
f 160/195/71 136/196/71 140/197/71 152/198/71
f 158/199/102 149/200/102 139/201/102 138/202/102
f 122/193/5 125/140/5 145/150/5 142/203/5
f 143/194/5 122/193/5 142/203/5 133/204/5
f 130/30/103 128/94/103 121/186/103 123/152/103
f 140/197/71 134/205/71 141/206/71 152/207/71
f 157/208/104 159/209/104 131/185/104 164/210/104
f 165/211/71 119/212/71 124/161/71 167/160/71
f 155/103/44 150/213/44 118/214/44 126/104/44
f 154/165/75 124/161/75 119/212/75 151/215/75
f 152/216/71 141/206/71 146/169/71 153/168/71
f 159/209/45 158/199/45 138/202/45 137/217/45 131/185/45
f 132/190/76 137/191/76 136/196/76 160/195/76 162/218/76
f 133/204/105 134/205/105 135/219/105
f 136/196/106 137/217/106 138/220/106
f 148/81/107 143/194/107 144/221/107 147/113/107
f 142/203/80 145/150/80 146/169/80 141/206/80
f 143/194/108 133/204/108 135/219/108 144/221/108
f 121/186/109 120/189/109 132/190/109 166/192/109
f 164/184/51 170/115/51 126/104/51 118/214/51
f 140/197/110 136/196/110 138/202/110 139/201/110
f 134/205/111 140/197/111 139/201/111 135/219/111
f 133/204/80 142/203/80 141/206/80 134/205/80
f 135/219/112 139/201/112 149/222/112 144/221/112
f 157/208/113 158/223/113 159/209/113
f 160/195/114 161/224/114 162/225/114
f 150/213/57 155/103/57 156/121/57 149/226/57
f 152/216/88 153/168/88 154/165/88 151/215/88
f 157/208/115 150/213/115 149/200/115 158/199/115
f 151/215/116 161/227/116 160/195/116 152/198/116
f 149/226/117 156/121/117 147/113/117 144/221/117
f 157/208/118 164/210/118 118/214/118 150/213/118
f 170/115/119 164/184/119 163/183/119 169/123/119
f 168/136/120 166/192/120 165/228/120 167/181/120
f 169/125/121 163/187/121 121/186/121 128/94/121
f 132/190/122 165/228/122 166/192/122
f 151/215/123 119/212/123 165/211/123 161/224/123
f 162/218/124 161/224/124 165/228/124 132/190/124
